<?xml version="1.0" encoding="UTF-8"?>
<svg id="Layer_1" data-name="Layer 1" xmlns="http://www.w3.org/2000/svg" viewBox="0 0 1000 1000">
  <defs>
    <style>
      .cls-1, .cls-2 {
        stroke-width: 0px;
      }

      .cls-2 {
        fill: #fff;
      }
    </style>
  </defs>
  <rect class="cls-1" width="1000" height="1000"/>
  <g>
    <path class="cls-2" d="m292.55,394.58v-3.22c0-28,.17-56-.05-84-.23-29.15,19.82-57.73,52.22-64.34,36.42-7.43,70.03,16.34,77.02,50.64.92,4.51,1.38,9.19,1.41,13.8.14,21.34.09,42.68.05,64.01-.01,6.2,1.82,11.62,6.14,16.09,4.18,4.32,9.31,6.6,15.35,6.63,7.34.04,14.68-.1,22.01.04,8.3.16,14.81,3.77,19,11,8.33,14.37-2.03,32.37-18.64,32.48-7.51.05-15.01.02-22.52,0-29.34-.03-55.47-20.35-62.74-48.8-1.41-5.5-2.12-11.08-2.12-16.76.02-21.68.03-43.35,0-65.03-.01-9.77-6.14-18.07-15.34-20.94-13.82-4.32-27.85,5.67-28.28,20.13-.03.93,0,1.86,0,2.78,0,71.69.01,143.38,0,215.07,0,16.02-4.9,30.39-15.24,42.68-11.49,13.66-26.23,21.38-44.02,23.2-30.94,3.17-62.13-16.98-69.9-50.66-1.08-4.7-1.63-9.48-1.63-14.3-.02-21.68-.04-43.35,0-65.03.06-32.23,23.53-59.6,55.36-64.5,3.48-.54,7.04-.75,10.57-.83,6.41-.13,12.82-.03,19.23-.04.58,0,1.17-.07,2.14-.13Zm-.13,43.88c-.49-.09-.81-.2-1.12-.2-7.16-.01-14.34-.2-21.49.04-7.06.24-12.78,3.39-16.95,9.15-2.92,4.03-4.1,8.62-4.1,13.56,0,12.81,0,25.62,0,38.44,0,8.43-.11,16.86.03,25.29.14,8.49,3.77,15.17,11.27,19.33,7.29,4.05,14.77,3.89,21.89-.4,7.45-4.48,10.61-11.44,10.6-19.99-.01-27.56,0-55.13,0-82.69,0-.82-.08-1.64-.13-2.52Z"/>
    <path class="cls-2" d="m448.7,368.73v-31.88c22.42-3.95,44.67-3.42,66.77,1.81,23.47,5.55,44.64,15.89,63.86,31.07-1.08.43-1.84.74-2.6,1.03-18.38,7.12-29.27,20.47-31.82,39.94-1.96,14.95,2.72,28.15,13.13,39.17,1.18,1.24,1.73,2.5,1.9,4.19,1.03,10.4,2.18,20.79,3.28,31.18.91,8.63,1.81,17.27,2.71,25.9.43,4.11.88,8.21,1.3,12.32.09.82.12,1.64.2,2.68-.82-.04-1.47,0-2.1-.12-23.07-4.02-46.14-8.07-69.22-12.06-1.78-.31-2.97-1.19-4.2-2.45-13.75-14.07-30.31-19.12-49.18-13.53-18.85,5.59-30.41,18.7-33.98,38.05-4.93,26.73,13.66,52.09,40.51,56.01,9.51,1.39,18.66.15,27.37-3.92,1.46-.68,2.78-.85,4.36-.48,30.92,7.22,61.86,14.39,92.79,21.57.81.19,1.61.45,2.54.71.41,3.81.82,7.56,1.23,11.32.05.5-.02,1.04.14,1.51.97,2.8-.33,4.38-2.55,6.01-20.94,15.41-44.16,25.53-69.79,29.83-64.53,10.83-127.13-16.78-163.01-69.64-.99-1.46-1.93-2.95-2.96-4.53.49-.66.91-1.26,1.37-1.84,12.14-14.99,19.01-32.07,20.35-51.33.21-2.94.31-5.89.31-8.84.02-36.85.01-73.71.01-110.56,0-.96,0-1.92,0-2.88.16-.02.31-.05.47-.07.36.73.71,1.45,1.07,2.18,13.78,27.79,35.93,44.67,66.33,50.63,4.76.93,9.71,1.16,14.58,1.29,7.67.21,15.35,0,23.02.07,22.69.22,43.09-16.71,46.55-40.12,3.77-25.57-13.6-49.41-39.17-53.52-2.49-.4-5.03-.54-7.55-.58-5.14-.09-10.29-.02-15.43-.03-.82,0-1.64-.08-2.59-.12Z"/>
    <path class="cls-2" d="m633.67,597.2c.45,2.97.85,5.7,1.29,8.42,2.31,14.31,4.62,28.61,6.94,42.92,2.62,16.13,5.25,32.27,7.85,48.4,2.12,13.14,4.19,26.29,6.34,39.43,1.53,9.36-4.78,19.65-15.86,21.4-3.59.56-7.16.98-10.77-.07-7.73-2.25-12.95-8.52-13.83-16.91-1.59-15.17-3.14-30.35-4.74-45.52-1.94-18.36-3.92-36.71-5.86-55.06-1.6-15.17-3.16-30.35-4.74-45.52-.18-1.75-.42-3.49-.65-5.43-3.12-.75-6.21-1.51-9.31-2.23-37.5-8.7-75-17.38-112.48-26.14-2.86-.67-5.07-.29-7.48,1.53-7.53,5.68-15.83,6.57-24.26,2.34-8.32-4.18-12.59-11.28-12.68-20.61-.11-10.45,7.07-19.43,17.39-22.15,9.85-2.6,20.41,1.91,25.54,10.89.42.73.78,1.5,1.26,2.19.99,1.45,2.55,1.85,4.15,2.13,7.05,1.23,14.11,2.45,21.16,3.68,15.93,2.78,31.86,5.57,47.8,8.36,14.69,2.57,29.37,5.15,44.06,7.71.39.07.8,0,1.44,0-.16-1.85-.28-3.58-.47-5.32-1.27-11.98-2.58-23.97-3.84-35.95-1.26-11.99-2.48-23.98-3.74-35.96-1.26-11.99-2.68-23.96-3.79-35.96-.53-5.77-1.35-6.37-5.14-9.03-8.39-5.88-11.45-16.78-7.9-26.36,3.49-9.41,12.9-15.62,22.68-14.96,10.58.71,19.2,7.94,21.34,18.12,1.59,7.59-.23,14.43-5.44,20.19-1.82,2.01-2.45,3.99-2,6.64,2.01,11.96,3.9,23.95,5.83,35.93,2.47,15.3,4.94,30.61,7.41,45.91,2.19,13.56,4.4,27.11,6.54,40.68.22,1.41.81,1.99,2.19,2.23,17.6,3.03,35.19,6.1,52.78,9.17,17.84,3.12,35.68,6.26,53.52,9.38,14.02,2.45,28.05,4.91,42.08,7.32,8.43,1.45,14.63,6.91,16.07,15.03,1.22,6.91-.14,13.54-4.82,18.98-4.78,5.56-11.05,7.66-18.24,6.03-19.47-4.42-38.9-8.98-58.35-13.5-25.6-5.95-51.19-11.91-76.79-17.86-.71-.17-1.44-.27-2.48-.47Z"/>
    <path class="cls-2" d="m690.14,547.84c-8.25-1.45-16.34-2.87-24.35-4.28,13.67-66.5-.58-125.45-45.66-176.4-46.8-49.22-104.13-68.76-171.47-60.9-.21-8.11-1.29-16.25-3.55-24.18,5.26-2.71,40.2-3.57,56.35-1.68,45.9,5.37,86.42,22.98,120.99,53.67,70.87,62.91,83.45,151.01,67.7,213.78Z"/>
    <path class="cls-2" d="m292.56,613.1c8.36-2.18,16.08-5.24,23.49-9.51,29.68,43.31,69.64,71.82,121.07,82.83,51.29,10.98,99.44,1.88,144.47-25.77,1.22,9.24,1.96,18.32,2.99,27.31-96.57,55.96-230.02,27.01-292.02-74.85Z"/>
  </g>
</svg>