<svg width="38" height="38" viewBox="0 0 38 38" fill="none" xmlns="http://www.w3.org/2000/svg">
<path d="M28.5114 0C29.8128 0 31.0386 0.249701 32.1888 0.749104C33.3389 1.24851 34.3453 1.92951 35.2079 2.79211C36.0705 3.65472 36.7515 4.66109 37.2509 5.81123C37.7503 6.96137 38 8.18718 38 9.48865V28.466C38 29.7674 37.7503 31.0008 37.2509 32.1661C36.7515 33.3313 36.0705 34.3453 35.2079 35.2079C34.3453 36.0705 33.3389 36.7515 32.1888 37.2509C31.0386 37.7503 29.8128 38 28.5114 38H9.48865C8.18718 38 6.96137 37.7503 5.81123 37.2509C4.66109 36.7515 3.65472 36.0705 2.79211 35.2079C1.92951 34.3453 1.24851 33.3313 0.749104 32.1661C0.249701 31.0008 0 29.7674 0 28.466V9.48865C0 8.18718 0.249701 6.96137 0.749104 5.81123C1.24851 4.66109 1.92951 3.65472 2.79211 2.79211C3.65472 1.92951 4.66109 1.24851 5.81123 0.749104C6.96137 0.249701 8.18718 0 9.48865 0H28.5114ZM13.0753 14.2557H8.30824V29.6918H13.0753V14.2557ZM10.7145 13.0299C11.3501 13.0299 11.9024 12.8029 12.3716 12.3489C12.8407 11.8949 13.0753 11.3349 13.0753 10.6691C13.0753 10.0032 12.8407 9.44325 12.3716 8.98925C11.9024 8.53525 11.3501 8.30824 10.7145 8.30824C10.0486 8.30824 9.48108 8.53525 9.01195 8.98925C8.54281 9.44325 8.30824 10.0032 8.30824 10.6691C8.30824 11.3349 8.54281 11.8949 9.01195 12.3489C9.48108 12.8029 10.0486 13.0299 10.7145 13.0299ZM29.6918 20.7479C29.6918 19.6583 29.3891 18.5914 28.7838 17.5472C28.1784 16.503 27.3915 15.7085 26.4229 15.1637C25.5452 14.6794 24.5237 14.4221 23.3584 14.3919C22.1932 14.3616 21.1414 14.5583 20.2031 14.9821V14.2557H15.4361V29.6918H20.2031V20.2485L22.1553 19.2951C22.3975 19.174 22.7304 19.1135 23.1541 19.1135C23.5779 19.1135 23.8957 19.1892 24.1075 19.3405C24.2891 19.4313 24.4707 19.628 24.6523 19.9307C24.8339 20.2334 24.9247 20.5058 24.9247 20.7479V29.6918H29.6918V20.7479Z" fill="#F3F4F6"/>
</svg>
