<?xml version="1.0" encoding="UTF-8"?>
<svg id="Layer_1" data-name="Layer 1" xmlns="http://www.w3.org/2000/svg" viewBox="0 0 1000 1000">
  <defs>
    <style>
      .cls-1, .cls-2 {
        stroke-width: 0px;
      }

      .cls-2 {
        fill: #e72a00;
      }
    </style>
  </defs>
  <rect class="cls-2" width="1000" height="1000"/>
  <path class="cls-1" d="m383.66,431.47c0,15.16,16.07,20.01,70.22,22.44l122.59,4.25c124.37,6.07,174.36,35.18,174.36,95.82,0,79.45-83.31,120.69-257.07,120.69-149.36,0-217.2-29.72-244.58-101.28l124.37-20.01c9.52,29.11,46.42,41.24,119.02,41.24,99.38,0,133.89-7.89,133.89-26.08,0-15.16-12.5-21.23-57.13-23.05l-123.18-4.85c-129.73-4.85-183.88-39.42-183.88-102.49,0-71.56,82.72-112.81,236.25-112.81s218.99,28.51,243.98,95.22l-120.2,20.01c-9.52-26.08-39.87-36.39-123.18-36.39s-115.44,8.49-115.44,27.29Z"/>
</svg>